<svg width="60" height="60" viewBox="0 0 60 60" fill="none" xmlns="http://www.w3.org/2000/svg">
<path fill-rule="evenodd" clip-rule="evenodd" d="M15.6775 5.28C13.6525 5.545 12.5825 6.0325 11.8175 6.78C11.055 7.53 10.5575 8.58 10.285 10.5625C10.005 12.605 10 15.31 10 19.1875V40.6125C10.9899 39.9366 12.0883 39.4352 13.2475 39.13C14.5675 38.7825 16.1075 38.7825 18.365 38.785H50V19.19C50 15.31 49.995 12.605 49.715 10.5625C49.4425 8.58 48.945 7.53 48.1825 6.78C47.4175 6.0325 46.3475 5.545 44.3225 5.28C42.2375 5.005 39.4775 5 35.5175 5H24.4825C20.5225 5 17.7625 5.005 15.6775 5.28ZM16.8975 16.4875C16.8975 15.3675 17.8225 14.46 18.965 14.46H41.035C41.5774 14.4553 42.0996 14.6658 42.4871 15.0454C42.8746 15.4249 43.0959 15.9426 43.1025 16.485C43.0966 17.0278 42.8756 17.5461 42.488 17.9262C42.1004 18.3063 41.5778 18.5172 41.035 18.5125H18.965C18.4226 18.5172 17.9004 18.3067 17.5129 17.9271C17.1254 17.5476 16.9041 17.0299 16.8975 16.4875ZM18.965 23.92C18.4226 23.9153 17.9004 24.1258 17.5129 24.5054C17.1254 24.8849 16.9041 25.4026 16.8975 25.945C16.8975 27.065 17.8225 27.9725 18.965 27.9725H32.7575C33.3003 27.9778 33.8231 27.7676 34.2112 27.388C34.5993 27.0084 34.8209 26.4903 34.8275 25.9475C34.8216 25.4042 34.6002 24.8855 34.2121 24.5054C33.8239 24.1252 33.3008 23.9147 32.7575 23.92H18.965Z" fill="black"/>
<path d="M18.6825 42.8375H50C49.9925 45.6625 49.9475 47.7725 49.7175 49.4375C49.445 51.42 48.9475 52.47 48.185 53.22C47.42 53.9675 46.35 54.455 44.325 54.72C42.24 54.995 39.48 55 35.52 55H24.4825C20.5225 55 17.7625 54.995 15.6775 54.7225C13.6525 54.455 12.5825 53.9675 11.8175 53.22C11.055 52.47 10.5575 51.42 10.285 49.4375C10.1825 48.6875 10.115 47.845 10.075 46.8875C10.4177 45.9511 10.9829 45.112 11.722 44.4426C12.4611 43.7732 13.3518 43.2936 14.3175 43.045C15.0425 42.855 15.985 42.8375 18.6825 42.8375Z" fill="black"/>
</svg>
