<svg width="60" height="60" viewBox="0 0 60 60" fill="none" xmlns="http://www.w3.org/2000/svg">
<g clip-path="url(#clip0_33_5)">
<path d="M24.0441 25.4027L32.175 38.1973C32.175 38.1973 30.6188 50.1926 24.9966 55.7895C19.3744 61.3887 0 59.7879 0 59.7879C0 59.7879 0.35625 57.0762 1.03125 53.2922L9.90188 40.1473C10.2741 39.5965 9.82031 38.7855 9.27844 39.034L3.61594 41.6227C4.96969 36.7406 6.68344 32.243 8.73469 30.2004C14.3569 24.6035 24.0441 25.4027 24.0441 25.4027ZM59.6747 3.63633L57.8128 0.706644C57.2981 -0.10195 56.3578 -0.236716 55.7119 0.406644L33.9169 21.2426L30.7163 16.207C30.2391 15.4559 29.2969 15.5965 28.9734 16.466L26.5988 22.8586L34.7297 35.6531L40.2422 34.1941C40.9922 33.9961 41.3128 32.8816 40.8366 32.1316L37.6406 27.102L59.4356 6.26602C60.0816 5.62383 60.1894 4.4461 59.6747 3.63633Z" fill="black"/>
</g>
<defs>
<clipPath id="clip0_33_5">
<rect width="60" height="60" fill="white"/>
</clipPath>
</defs>
</svg>
