<svg width="60" height="60" viewBox="0 0 60 60" fill="none" xmlns="http://www.w3.org/2000/svg">
<path fill-rule="evenodd" clip-rule="evenodd" d="M36.6625 5.825C37.1071 5.60272 37.6218 5.56607 38.0934 5.72312C38.565 5.88016 38.9549 6.21805 39.1775 6.6625L44.68 17.6675C48.0625 17.9275 50.185 18.5925 51.555 20.285C53.805 23.07 52.9075 27.26 51.1125 35.6425L50.04 40.6425C48.8225 46.325 48.215 49.165 46.1525 50.8325C44.09 52.5 41.185 52.5 35.375 52.5H24.625C18.815 52.5 15.91 52.5 13.85 50.8325C11.785 49.165 11.175 46.325 9.96 40.6425L8.8875 35.6425C7.0925 27.26 6.1925 23.07 8.445 20.285C9.815 18.59 11.9375 17.9275 15.32 17.6675L20.8225 6.6625C21.0469 6.22158 21.4365 5.88723 21.9064 5.73232C22.3763 5.57741 22.8884 5.61449 23.331 5.83549C23.7737 6.05649 24.111 6.44349 24.2696 6.91215C24.4281 7.38081 24.395 7.89314 24.1775 8.3375L19.59 17.5125C20.795 17.5042 22.1167 17.5 23.555 17.5H36.445C37.8833 17.4983 39.205 17.5025 40.41 17.5125L35.8225 8.3375C35.6004 7.8926 35.5641 7.37769 35.7216 6.90604C35.8792 6.43439 36.2176 6.04713 36.6625 5.825ZM18.125 30C18.125 29.5027 18.3225 29.0258 18.6742 28.6742C19.0258 28.3225 19.5027 28.125 20 28.125H40C40.4973 28.125 40.9742 28.3225 41.3258 28.6742C41.6775 29.0258 41.875 29.5027 41.875 30C41.875 30.4973 41.6775 30.9742 41.3258 31.3258C40.9742 31.6775 40.4973 31.875 40 31.875H20C19.5027 31.875 19.0258 31.6775 18.6742 31.3258C18.3225 30.9742 18.125 30.4973 18.125 30ZM25 35.625C24.5027 35.625 24.0258 35.8225 23.6742 36.1742C23.3225 36.5258 23.125 37.0027 23.125 37.5C23.125 37.9973 23.3225 38.4742 23.6742 38.8258C24.0258 39.1775 24.5027 39.375 25 39.375H35C35.4973 39.375 35.9742 39.1775 36.3258 38.8258C36.6775 38.4742 36.875 37.9973 36.875 37.5C36.875 37.0027 36.6775 36.5258 36.3258 36.1742C35.9742 35.8225 35.4973 35.625 35 35.625H25Z" fill="black"/>
</svg>
