<svg width="60" height="60" viewBox="0 0 60 60" fill="none" xmlns="http://www.w3.org/2000/svg">
<path d="M52.5 47.5C53.1372 47.5007 53.7501 47.7447 54.2134 48.1821C54.6768 48.6195 54.9556 49.2174 54.9929 49.8535C55.0303 50.4896 54.8233 51.1159 54.4143 51.6046C54.0054 52.0932 53.4252 52.4072 52.7925 52.4825L52.5 52.5H7.50001C6.86281 52.4993 6.24993 52.2553 5.78659 51.8179C5.32325 51.3805 5.04442 50.7826 5.00708 50.1465C4.96973 49.5104 5.17669 48.8841 5.58567 48.3954C5.99465 47.9068 6.57477 47.5928 7.20751 47.5175L7.50001 47.5H52.5ZM47.5 10C48.7614 9.9996 49.9764 10.476 50.9014 11.3337C51.8263 12.1915 52.3929 13.3671 52.4875 14.625L52.5 15V40C52.5004 41.2614 52.024 42.4764 51.1663 43.4014C50.3085 44.3263 49.1329 44.8929 47.875 44.9875L47.5 45H12.5C11.2386 45.0004 10.0236 44.524 9.09864 43.6663C8.17368 42.8085 7.60712 41.6329 7.51251 40.375L7.50001 40V15C7.49961 13.7386 7.97602 12.5236 8.83375 11.5986C9.69148 10.6737 10.8671 10.1071 12.125 10.0125L12.5 10H47.5Z" fill="black"/>
</svg>
