<svg width="24" height="24" viewBox="0 0 24 24" fill="none" xmlns="http://www.w3.org/2000/svg">
<path d="M6.8125 21C6.29688 21 5.85563 20.8043 5.48875 20.413C5.12188 20.0217 4.93813 19.5507 4.9375 19V6C4.67188 6 4.44938 5.904 4.27 5.712C4.09063 5.52 4.00063 5.28267 4 5C3.99938 4.71733 4.08938 4.48 4.27 4.288C4.45063 4.096 4.67313 4 4.9375 4H8.6875C8.6875 3.71667 8.7775 3.47933 8.9575 3.288C9.1375 3.09667 9.36 3.00067 9.625 3H13.375C13.6406 3 13.8634 3.096 14.0434 3.288C14.2234 3.48 14.3131 3.71733 14.3125 4H18.0625C18.3281 4 18.5509 4.096 18.7309 4.288C18.9109 4.48 19.0006 4.71733 19 5C18.9994 5.28267 18.9094 5.52033 18.73 5.713C18.5506 5.90567 18.3281 6.00133 18.0625 6V19C18.0625 19.55 17.8791 20.021 17.5122 20.413C17.1453 20.805 16.7037 21.0007 16.1875 21H6.8125ZM9.625 17C9.89063 17 10.1134 16.904 10.2934 16.712C10.4734 16.52 10.5631 16.2827 10.5625 16V9C10.5625 8.71667 10.4725 8.47933 10.2925 8.288C10.1125 8.09667 9.89 8.00067 9.625 8C9.36 7.99933 9.1375 8.09533 8.9575 8.288C8.7775 8.48067 8.6875 8.718 8.6875 9V16C8.6875 16.2833 8.7775 16.521 8.9575 16.713C9.1375 16.905 9.36 17.0007 9.625 17ZM13.375 17C13.6406 17 13.8634 16.904 14.0434 16.712C14.2234 16.52 14.3131 16.2827 14.3125 16V9C14.3125 8.71667 14.2225 8.47933 14.0425 8.288C13.8625 8.09667 13.64 8.00067 13.375 8C13.11 7.99933 12.8875 8.09533 12.7075 8.288C12.5275 8.48067 12.4375 8.718 12.4375 9V16C12.4375 16.2833 12.5275 16.521 12.7075 16.713C12.8875 16.905 13.11 17.0007 13.375 17Z" fill="black"/>
</svg>
